<?xml version="1.0" encoding="UTF-8"?>
<svg version="1.1" xmlns="http://www.w3.org/2000/svg" width="366" height="327">
<path d="M0 0 C0.69407959 -0.00067474 1.38815918 -0.00134949 2.10327148 -0.00204468 C29.86783278 0.04085136 54.41037079 7.89270103 76.125 25.25 C77.115 25.91 78.105 26.57 79.125 27.25 C79.125 27.91 79.125 28.57 79.125 29.25 C79.785 29.25 80.445 29.25 81.125 29.25 C83.70823074 31.68661494 85.88854224 34.49709994 88.125 37.25 C88.79402344 38.07113281 89.46304688 38.89226562 90.15234375 39.73828125 C99.87752593 52.33808542 106.83415986 69.04584983 105.125 85.25 C104.795 85.91 104.465 86.57 104.125 87.25 C99.26317832 87.44447287 95.68397484 86.89019775 91.125 85.25 C91.02703125 84.21101563 90.9290625 83.17203125 90.828125 82.1015625 C89.52905504 69.53785108 86.36112495 58.29946625 78.47265625 48.1171875 C77.125 46.25 77.125 46.25 77.125 44.25 C76.135 43.92 75.145 43.59 74.125 43.25 C74.125 42.59 74.125 41.93 74.125 41.25 C73.465 41.25 72.805 41.25 72.125 41.25 C70.5 39.875 70.5 39.875 69.125 38.25 C69.125 37.59 69.125 36.93 69.125 36.25 C68.57585937 35.99734375 68.02671875 35.7446875 67.4609375 35.484375 C64.71420131 34.03292243 62.28700956 32.29328347 59.75 30.5 C46.0213221 21.33096754 27.82888191 14.57661222 11.125 14.25 C10.45919922 14.23098633 9.79339844 14.21197266 9.10742188 14.19238281 C-16.37299017 13.52644231 -42.34281735 17.78467146 -62.5546875 34.4609375 C-64.875 36.25 -64.875 36.25 -66.875 36.25 C-67.205 37.24 -67.535 38.23 -67.875 39.25 C-68.535 39.25 -69.195 39.25 -69.875 39.25 C-69.875 39.91 -69.875 40.57 -69.875 41.25 C-70.535 41.25 -71.195 41.25 -71.875 41.25 C-72.13667969 41.8171875 -72.39835937 42.384375 -72.66796875 42.96875 C-73.9728121 45.4348617 -75.51163494 47.52046777 -77.1875 49.75 C-86.92626516 63.48571669 -90.29713904 79.90225675 -87.50439453 96.4453125 C-85.3238682 105.84812324 -80.71075898 113.67662739 -74.875 121.25 C-74.26914063 122.05050781 -73.66328125 122.85101563 -73.0390625 123.67578125 C-57.88779234 142.18334543 -32.2808591 151.07965464 -9.28515625 153.984375 C-4.36292672 154.3677789 0.52380376 154.3485877 5.45703125 154.22265625 C8.125 154.25 8.125 154.25 9.125 155.25 C9.19744053 157.26964199 9.20877188 159.29167124 9.1875 161.3125 C9.17847656 162.41722656 9.16945313 163.52195313 9.16015625 164.66015625 C9.14855469 165.51480469 9.13695312 166.36945313 9.125 167.25 C-9.16817157 173.34772386 -35.96623914 164.5817199 -52.59472656 156.69384766 C-60.10885047 152.88399326 -66.71556752 147.83233201 -73.25317383 142.55712891 C-74.67086311 141.41452641 -76.11286889 140.30222848 -77.55859375 139.1953125 C-90.63225097 128.21608604 -100.10635508 109.90970269 -102.6875 93.0625 C-103.62829013 73.93310066 -100.3692609 57.03420817 -88.875 41.25 C-88.22917969 40.34636719 -87.58335938 39.44273438 -86.91796875 38.51171875 C-81.388932 31.25934587 -74.89324411 25.84057018 -67.58129883 20.4987793 C-66.45508476 19.67454336 -65.33988988 18.8350085 -64.23706055 17.97973633 C-59.47982423 14.37791822 -54.42053648 12.00079721 -48.9375 9.6875 C-48.01888184 9.29691406 -47.10026367 8.90632813 -46.15380859 8.50390625 C-31.06564805 2.26233507 -16.29534722 0.01418032 0 0 Z " fill="#2B2626" transform="translate(178.875,38.75)"/>
<path d="M0 0 C23.33426525 0.91075867 45.14828644 5.13314862 65 18 C66.41152344 18.90685547 66.41152344 18.90685547 67.8515625 19.83203125 C86.74167806 32.76114493 100.05610216 50.60142612 104.453125 73.24609375 C107.32929535 92.98894877 102.51154587 111.56255744 90.79199219 127.65917969 C88.34628712 130.91175509 85.85512581 134.09748621 83 137 C82.34 137 81.68 137 81 137 C80.67 137.99 80.34 138.98 80 140 C78.05470112 141.70470384 76.12869947 143.26844061 74.0625 144.8125 C73.47057861 145.25827393 72.87865723 145.70404785 72.26879883 146.16333008 C48.10144007 164.13627331 21.54027369 169.53242648 -8 169 C-9.08796875 168.98324219 -10.1759375 168.96648437 -11.296875 168.94921875 C-35.12761114 167.77114564 -56.74259833 156.60592134 -75 142 C-75.74378906 141.47921875 -76.48757812 140.9584375 -77.25390625 140.421875 C-77.83011719 139.95265625 -78.40632813 139.4834375 -79 139 C-79 138.34 -79 137.68 -79 137 C-79.66 137 -80.32 137 -81 137 C-82.67992048 135.09951442 -84.22339921 133.2063436 -85.75 131.1875 C-86.19811035 130.59799561 -86.6462207 130.00849121 -87.10791016 129.40112305 C-90.97796067 124.20916606 -94.21037957 118.851185 -97 113 C-97.38929687 112.19175781 -97.77859375 111.38351563 -98.1796875 110.55078125 C-101.85270054 102.2261787 -103.37200632 93.08758305 -103 84 C-102 83 -102 83 -99.3125 82.8671875 C-98.219375 82.86976563 -97.12625 82.87234375 -96 82.875 C-94.906875 82.87242187 -93.81375 82.86984375 -92.6875 82.8671875 C-90 83 -90 83 -89 84 C-88.89043304 85.54002456 -88.81370629 87.08239763 -88.75 88.625 C-87.17073672 107.04973824 -77.17796521 122.17321739 -63.51171875 134.1875 C-46.43987673 147.4512073 -25.26626416 153.61200477 -4 155 C-3.08863281 155.06058594 -2.17726563 155.12117187 -1.23828125 155.18359375 C1.20052825 155.25398384 3.565261 155.16543278 6 155 C7.81951172 154.88011719 7.81951172 154.88011719 9.67578125 154.7578125 C34.13774731 152.71810295 58.03990691 143.37344797 74.8125 125 C75.89604534 123.68371222 76.95911088 122.35027178 78 121 C78.78310547 119.98873047 78.78310547 119.98873047 79.58203125 118.95703125 C89.40520251 105.30406664 91.19091419 90.30935892 90 74 C88.46855701 65.37141264 84.92589713 58.17844306 80 51 C79.54882812 50.31421875 79.09765625 49.6284375 78.6328125 48.921875 C66.73409673 31.84688174 45.99209517 21.26447353 26 17 C18.45872464 15.81211976 10.86646838 15.02973593 3.26806641 14.30957031 C1 14 1 14 -1 13 C-0.505 6.565 -0.505 6.565 0 0 Z " fill="#2C4851" transform="translate(179,107)"/>
<path d="M0 0 C15.32018018 12.00650827 27.19454059 28.42834416 30.25 48.0625 C30.43577402 50.79000033 30.40782375 53.3268884 30.25 56.0625 C28.93 56.0625 27.61 56.0625 26.25 56.0625 C26.09144531 55.04671875 25.93289063 54.0309375 25.76953125 52.984375 C22.45254268 32.9085099 13.53814752 15.93984456 -3.01953125 3.5703125 C-26.71234361 -13.37844216 -56.32990111 -20.48554346 -85.19750977 -16.11547852 C-88.742676 -15.50286004 -92.24670284 -14.75431413 -95.75 -13.9375 C-96.4497998 -13.77652832 -97.14959961 -13.61555664 -97.87060547 -13.44970703 C-120.11155406 -8.13088611 -139.62847853 3.9980801 -152.7890625 23.0078125 C-158.22729476 31.87097401 -162.28303464 41.5752364 -162.75 52.0625 C-162.8015625 52.95324219 -162.853125 53.84398438 -162.90625 54.76171875 C-163.25300652 65.81458292 -160.92264801 76.28021329 -155.75 86.0625 C-155.32976562 86.86171875 -154.90953125 87.6609375 -154.4765625 88.484375 C-143.37053393 108.24206119 -123.09789586 121.45417045 -101.75 128.0625 C-89.95925924 131.05562741 -77.83819412 132.00973719 -65.75 133.0625 C-65.75 134.3825 -65.75 135.7025 -65.75 137.0625 C-94.14625312 138.0113847 -120.58772634 130.14467932 -142.33203125 111.328125 C-156.07757986 98.44861257 -166.97082326 81.87285949 -168.12109375 62.625 C-168.55820647 46.345648 -165.0316969 32.61256944 -155.75 19.0625 C-154.96689453 17.90041016 -154.96689453 17.90041016 -154.16796875 16.71484375 C-138.19752408 -5.31737554 -111.88240555 -16.92269802 -85.74584961 -21.52954102 C-55.61852524 -25.632121 -24.28254592 -18.44704577 0 0 Z " fill="#f0b5a8" transform="translate(248.75,64.9375)"/>
<path d="M0 0 C28.31190674 -0.44410834 55.17522053 11.08246979 75.609375 30.4765625 C83.83428016 39.18361728 90.31078275 49.58284347 94 61 C94.33644531 61.98226562 94.33644531 61.98226562 94.6796875 62.984375 C99.52798225 80.11944413 95.06056076 98.40945659 86.98828125 113.70703125 C83.82829719 118.94056084 80.1022063 123.48313025 76 128 C75.47148437 128.62132812 74.94296875 129.24265625 74.3984375 129.8828125 C58.33851112 147.58991082 30.4806109 157.52782449 7.15039062 159.20483398 C4.22191844 159.30249943 1.30502433 159.32854509 -1.625 159.3125 C-3.1877063 159.30730347 -3.1877063 159.30730347 -4.78198242 159.30200195 C-13.79004639 159.17663021 -22.24224502 158.03778931 -31 156 C-32.44632813 155.69255859 -32.44632813 155.69255859 -33.921875 155.37890625 C-57.17420073 149.84100027 -79.27659506 135.3455846 -92 115 C-97.8170897 105.05012539 -101.92754522 94.64584553 -101 83 C-100.01 83 -99.02 83 -98 83 C-97.8040625 84.0415625 -97.608125 85.083125 -97.40625 86.15625 C-93.97047468 103.12750278 -87.49548801 115.9843978 -75 128 C-74.34386719 128.66386719 -73.68773438 129.32773438 -73.01171875 130.01171875 C-67.17214867 135.57619131 -60.07723019 139.25974315 -53 143 C-52.10410156 143.47566406 -51.20820313 143.95132813 -50.28515625 144.44140625 C-38.94040526 150.01763979 -25.66162374 153.78088661 -13 154 C-11.86473877 154.02852051 -11.86473877 154.02852051 -10.70654297 154.05761719 C20.26866438 154.77130468 49.09112648 147.01571469 72.0625 125.375 C84.0657402 112.98095664 91.51329338 96.6011797 91.625 79.25 C91.20004613 60.49701357 83.20932639 45.02712879 70 32 C69.31421875 31.30390625 68.6284375 30.6078125 67.921875 29.890625 C49.45486871 12.24437455 24.43004262 6.94546613 0 4 C0 2.68 0 1.36 0 0 Z " fill="#a8f0b5" transform="translate(183,112)"/>
</svg>
